<?xml version="1.0" encoding="utf-8"?>
<!DOCTYPE svg PUBLIC "-//W3C//DTD SVG 20010904//EN" "http://www.w3.org/TR/2001/REC-SVG-20010904/DTD/svg10.dtd">
<svg version="1.0" xmlns="http://www.w3.org/2000/svg" width="199px" height="200px" viewBox="0 0 199 200" preserveAspectRatio="xMidYMid meet">
 <g fill="#000000">
  <path d="M20.1 140.6 c-0.8 -0.9 -1 -12.6 -0.9 -41.2 l0.3 -39.9 6.6 -0.3 c4.6 -0.2 6.9 0.1 7.7 1.1 0.6 0.7 2.9 6.8 5.2 13.6 2.2 6.8 4.4 12.9 4.8 13.7 0.5 0.8 2.4 -3.9 5.1 -12.4 2.4 -7.5 4.9 -14.3 5.4 -14.9 1.5 -2 13.3 -1.7 14.1 0.3 0.9 2.4 0.7 78.7 -0.3 80.2 -0.5 0.9 -2.9 1.2 -8.2 1 l-7.4 -0.3 -0.4 -11 c-0.3 -10.4 -0.4 -10.8 -1.6 -7 -1.1 3.9 -1.3 4 -6.2 4.3 -4.9 0.3 -5 0.2 -6 -3 -1 -2.9 -1.1 -2.1 -1.2 5.8 -0.1 5.5 -0.6 9.5 -1.3 10.2 -1.7 1.7 -14.2 1.6 -15.7 -0.2z"/>
  <path d="M147.7 141.3 c-0.4 -0.3 -0.7 -16.2 -0.8 -35.2 l-0.1 -34.6 -4.7 19 c-2.6 10.5 -5 19.6 -5.5 20.3 -0.4 0.6 -2.1 1.2 -3.7 1.2 -3 0 -2.9 0.1 3.5 5.7 6.2 5.4 6.6 5.9 6.6 10 0 2.4 -0.7 5.9 -1.4 7.8 -1.3 3.1 -1.9 3.5 -5.3 3.5 -2.9 0 -4.5 -0.8 -7.3 -3.5 l-3.6 -3.5 -2.9 3 c-2.3 2.4 -3.7 3 -7 3 -3.7 0 -4.3 -0.3 -5.8 -3.5 -3.2 -6.7 -2.4 -9.1 5.1 -16.1 6.3 -5.9 6.5 -6.4 4 -6.4 -1.6 0 -3.1 -0.8 -3.7 -1.7 -0.5 -1 -2.4 -8.3 -4.2 -16.3 l-3.4 -14.4 -0.5 27.3 -0.5 27.3 -3.9 3.4 c-3.9 3.4 -4 3.4 -13.9 3.4 l-10 0 -4.3 -4.4 -4.4 -4.3 0 -32.1 0 -32 2.6 -3.2 c3.6 -4.2 8.4 -6 16.4 -6 6.6 0 12.1 1.7 13.7 4.3 0.4 0.7 0.9 0.3 1.3 -1.3 0.6 -2.4 0.9 -2.5 9 -2.5 l8.4 0 2.1 9.7 c1.1 5.3 2.3 9.9 2.6 10.3 0.3 0.3 1.4 -3.4 2.3 -8.2 1 -4.9 1.9 -9.6 2.2 -10.5 0.5 -1.6 2.8 -1.7 25 -1.8 l24.4 0 0 8.5 0 8.4 -7.2 0.3 -7.3 0.3 -0.3 9.2 -0.3 9.2 4.8 0.3 4.8 0.3 0 8 0 8 -4.5 0.5 -4.5 0.5 -0.3 5.7 -0.3 5.7 7.3 0.3 7.3 0.3 0.3 8.8 0.3 8.7 -15.9 0 c-8.7 0 -16.2 -0.3 -16.5 -0.7z m-57.8 -40.3 c0 -10.2 -0.4 -19.4 -0.9 -20.5 -0.5 -1.2 -0.9 6.8 -0.9 20 -0.1 14.5 0.3 21.5 0.9 20.5 0.5 -0.8 0.9 -9.7 0.9 -20z"/>
 </g>
 <g fill="#ffffff">
  <path d="M0 100 l0 -100 99.5 0 99.5 0 0 100 0 100 -99.5 0 -99.5 0 0 -100z m32.8 37.8 c0.8 -0.8 1.2 -6.5 1.2 -19.1 0 -9.8 0.4 -17.6 0.8 -17.3 0.5 0.3 2.4 5.7 4.2 12.1 2.9 10.1 3.6 11.6 5.3 11.3 2 -0.3 3.2 -3.6 7.7 -20.7 0.7 -2.6 1.5 -4 2 -3.5 0.5 0.5 1.1 9.3 1.2 19.4 l0.3 18.5 4.4 0.3 c2.8 0.2 4.7 -0.1 5.2 -1 1 -1.5 1.2 -71.8 0.3 -74.2 -0.7 -1.9 -6.9 -2.2 -8.1 -0.3 -0.4 0.6 -3.3 8.6 -6.3 17.7 -3.6 10.7 -6 16.5 -6.9 16.5 -0.9 0 -3.2 -5.8 -6.8 -16.4 -2.9 -9.1 -5.9 -17.1 -6.5 -17.8 -0.7 -0.9 -2.6 -1.3 -4.7 -1.1 l-3.6 0.3 -0.3 36.9 c-0.2 26.4 0.1 37.3 0.9 38.2 1.4 1.7 8.1 1.8 9.7 0.2z m144 -4.5 l-0.3 -5.8 -7.3 -0.3 -7.3 -0.3 0.3 -8.7 0.3 -8.7 4.5 -0.5 4.5 -0.5 0 -5 0 -5 -4.8 -0.3 -4.8 -0.3 0.3 -12.2 0.3 -12.2 7.3 -0.3 7.2 -0.3 0 -5.5 0 -5.5 -13.2 0.3 -13.3 0.3 -0.3 37 c-0.1 20.3 0 37.6 0.3 38.2 0.3 1 4 1.3 13.5 1.3 l13.1 0 -0.3 -5.7z m-77.2 1.3 l3.9 -3.4 0 -30.5 0 -30.5 -2.4 -2.6 c-7.1 -7.6 -18.9 -7.4 -25.5 0.4 l-2.6 3.2 0 29 0 29.1 4.4 4.3 c4.3 4.4 4.4 4.4 11.3 4.4 6.5 0 7.2 -0.2 10.9 -3.4z m39 -2.1 c0.7 -1.9 1.4 -4 1.4 -4.8 0 -1.5 -12.6 -12.7 -14.3 -12.7 -0.7 0 -4.3 2.9 -8 6.4 l-6.8 6.4 1.8 3.6 c0.9 2 2.2 3.6 2.8 3.6 0.6 0 2.9 -1.8 5 -4 2.1 -2.2 4.4 -4 5 -4 0.6 0 3.1 2 5.5 4.5 2.4 2.5 4.8 4.5 5.3 4.5 0.4 0 1.5 -1.6 2.3 -3.5z m-5 -24.7 c1.2 -1.9 11.3 -44.2 10.7 -45 -0.2 -0.5 -2.6 -0.8 -5.3 -0.8 -4.3 0 -5 0.3 -5.5 2.3 -2.6 11.5 -5.5 26.3 -5.5 28.2 0 2.1 -1.6 4.3 -2.5 3.3 -0.2 -0.1 -1.8 -7.7 -3.7 -16.8 l-3.4 -16.5 -4.8 -0.3 c-2.7 -0.2 -5.2 0 -5.7 0.5 -0.7 0.8 8.1 39.4 10.1 44.1 0.9 2 1.7 2.2 7.9 2.2 4.4 0 7.3 -0.5 7.7 -1.2z"/>
  <path d="M85.7 125.3 c-1.3 -1.2 -0.8 -48.8 0.5 -50.1 2.2 -2.2 4.6 -1.3 5.7 1.9 1.4 4.2 1.5 44.3 0.1 47 -1 1.8 -5 2.6 -6.3 1.2z"/>
 </g>
</svg>